<svg height="50" viewBox="0 0 201 29" width="222" xmlns="http://www.w3.org/2000/svg"><g fill="none" fill-rule="evenodd"><g fill-rule="nonzero"><g fill="#414f9b"><path d="m.2 2c0-.8.6-1.4 1.4-1.5 7.4-.9 12.9 1.3 13.9 7.7.4 2.9-.6 5.9-2.9 7.8-1.4 1.2-3.1 1.8-4.9 2.1-1.5.2-2.7 1.5-2.7 3v1.8h-4.8zm10.6 6.8c-.4-2.3-1.7-3.9-4.2-3.9-.9 0-1.6.7-1.6 1.6v6.8c3.5.5 6.3-1.4 5.8-4.5z"/><path d="m24.1.9h2.5l7.8 21.8h-4.8l-1.5-4h-3.9c-1.8 0-3.4 1.1-4 2.7l-.5 1.2h-4.8l7.7-20.6c.2-.7.8-1.1 1.5-1.1zm2.4 13.2-1.3-4.4c-.1-.3-.6-.3-.7 0l-1.5 4.4z"/><path d="m37 1.9c0-.7.5-1.3 1.3-1.4 8.4-1 13 1.2 14 7.6.4 2.9-.6 5.8-2.8 7.8l3.3 6.9h-5.2l-2.2-4.9c-.3.1-.6.1-1 .1-1.5.2-2.6 1.4-2.6 2.9v1.9h-4.8zm9.3 10.3c1-.9 1.5-2.1 1.3-3.5-.4-2.5-1.9-3.7-4.7-3.8-.6 0-1.1.4-1.1 1v7.3c1.9.3 3.4 0 4.5-1z"/><path d="m55.2 4.4.3-2.8c.1-.6.6-1 1.2-1h3.3v7.4l6-7.4h6l-7.6 9.5 7.5 12.6h-5.2l-5.3-8.9-.4.5c-.7.7-1 1.6-1 2.6v5.9h-4.8z"/></g><path d="m82 .9h2.5l7.8 21.8h-4.8l-1.5-4h-4c-1.7 0-3.2 1-3.9 2.6l-.5 1.3h-4.8l7.7-20.8c.3-.5.9-.9 1.5-.9zm2.4 13.2-1.3-4.4c-.1-.3-.6-.4-.7 0l-1.5 4.4z" fill="#545454"/><path d="m96.1.5h3.7l5.8 10.5c.4.8 1.7.5 1.7-.4v-9c0-.6.5-1 1-1h3.6v22.2h-5.1l-6.3-11.5c-.3-.5-1-.3-1 .3v11.2h-4.7v-21c.1-.7.7-1.3 1.3-1.3z" fill="#545454"/><path d="m114.5 22.7v-21c0-.8.6-1.4 1.4-1.5 1.1-.1 2.3-.2 3.2-.2 7.7 0 12.6 4.5 12.6 11.5 0 7.3-4.8 11.4-13.5 11.4-1.1 0-2.5-.1-3.7-.2zm12.5-11.2c0-3.8-2.2-6.6-5.9-6.9-1.2-.1-2.2.8-2.2 2v11.6c4.9.3 8.1-2 8.1-6.7z" fill="#545454"/><path d="m135.4.6h12.5v4.7h-7.7c-.7 0-1.3.6-1.3 1.3v3.9h7.3v4.4h-4.2c-1.7 0-3.1 1.4-3.1 3.1v4.8h-4.7v-21c.1-.7.6-1.2 1.2-1.2z" fill="#da902b"/><path d="m151.4.6h3.7v17.4h9v4.7h-13.7v-21.1c0-.6.5-1 1-1z" fill="#da902b"/><path d="m170.1 13.9-6.9-12.1c-.3-.5.1-1.2.7-1.2h4.2l4.3 8 3.5-6.3c.6-1.1 1.7-1.7 2.9-1.7h3.6l-7 12.1c-.4.8-.7 1.6-.7 2.5v7.6h-4.7v-8.9z" fill="#da902b"/></g><path d="m.2 25.8h173.9s13-.6 17.1-8.1l-8.8-2.9 1.9-1.5 9.9.9s4.9-5.3 5.6-4.3c.7.9-2.3 4-3.8 5.9l2 10.6-1.3 1.1-4-8.6-4 4.4.9 2.7-1.3 2-1.6-3.4" stroke="#da902b"/></g></svg>